<svg width="39" height="43" viewBox="0 0 39 43" fill="none" xmlns="http://www.w3.org/2000/svg">
<path d="M29.385 13.3433H-7.98705C-8.64782 13.3433 -9.28154 13.5879 -9.74878 14.0233C-10.216 14.4587 -10.4785 15.0493 -10.4785 15.6651V24.9521C-10.4707 29.8321 -8.48903 34.5302 -4.92878 38.1089H-7.98705C-8.64782 38.1089 -9.28154 38.3535 -9.74878 38.789C-10.216 39.2244 -10.4785 39.815 -10.4785 40.4308C-10.4785 41.0464 -10.216 41.6369 -9.74878 42.0724C-9.28154 42.5078 -8.64782 42.7525 -7.98705 42.7525H28.5544C29.2152 42.7525 29.8489 42.5078 30.3161 42.0724C30.7833 41.6369 31.0459 41.0464 31.0459 40.4308C31.0459 39.815 30.7833 39.2244 30.3161 38.789C29.8489 38.3535 29.2152 38.1089 28.5544 38.1089H25.4962C27.2865 36.3072 28.6953 34.2066 29.6486 31.9176C32.0255 31.8536 34.2819 30.9284 35.9385 29.3388C37.5951 27.7491 38.5213 25.6201 38.5203 23.4044V21.8565C38.5175 19.5994 37.5542 17.4355 35.8416 15.8395C34.129 14.2436 31.8069 13.3458 29.385 13.3433ZM26.063 24.9521C26.0577 27.6823 25.2398 30.3574 23.7004 32.6803C22.1608 35.0029 19.96 36.8823 17.3429 38.1089H3.22454C0.607306 36.8823 -1.59346 35.0029 -3.13295 32.6803C-4.67245 30.3574 -5.49032 27.6823 -5.49558 24.9521V17.9868H26.063V24.9521ZM33.5374 23.4044C33.5365 24.177 33.2876 24.9317 32.8224 25.5714C32.3573 26.211 31.6975 26.7064 30.9275 26.9933C31.0067 26.3155 31.0462 25.6341 31.0459 24.9521V18.3118C31.7861 18.6129 32.416 19.1086 32.8585 19.7381C33.301 20.3677 33.5369 21.1039 33.5374 21.8565V23.4044ZM-0.512655 7.92578V3.28222C-0.512655 2.66645 -0.250171 2.0759 0.217083 1.64048C0.684319 1.20506 1.31804 0.960449 1.97881 0.960449C2.63959 0.960449 3.27331 1.20506 3.74055 1.64048C4.20778 2.0759 4.47028 2.66645 4.47028 3.28222V7.92578C4.47028 8.54155 4.20778 9.13211 3.74055 9.56753C3.27331 10.003 2.63959 10.2476 1.97881 10.2476C1.31804 10.2476 0.684319 10.003 0.217083 9.56753C-0.250171 9.13211 -0.512655 8.54155 -0.512655 7.92578ZM7.79217 7.92578V3.28222C7.79217 2.66645 8.05473 2.0759 8.52193 1.64048C8.98913 1.20506 9.62284 0.960449 10.2837 0.960449C10.9445 0.960449 11.5782 1.20506 12.0454 1.64048C12.5126 2.0759 12.7752 2.66645 12.7752 3.28222V7.92578C12.7752 8.54155 12.5126 9.13211 12.0454 9.56753C11.5782 10.003 10.9445 10.2476 10.2837 10.2476C9.62284 10.2476 8.98913 10.003 8.52193 9.56753C8.05473 9.13211 7.79217 8.54155 7.79217 7.92578ZM16.0972 7.92578V3.28222C16.0972 2.66645 16.3595 2.0759 16.8269 1.64048C17.2941 1.20506 17.9278 0.960449 18.5885 0.960449C19.2493 0.960449 19.8831 1.20506 20.3503 1.64048C20.8176 2.0759 21.08 2.66645 21.08 3.28222V7.92578C21.08 8.54155 20.8176 9.13211 20.3503 9.56753C19.8831 10.003 19.2493 10.2476 18.5885 10.2476C17.9278 10.2476 17.2941 10.003 16.8269 9.56753C16.3595 9.13211 16.0972 8.54155 16.0972 7.92578Z" fill="#2C2B2B"/>
</svg>
