<svg width="347" height="49" viewBox="0 0 347 49" fill="none" xmlns="http://www.w3.org/2000/svg">
<g clip-path="url(#clip0_256_456)">
<g clip-path="url(#clip1_256_456)">
<g clip-path="url(#clip2_256_456)">
<path d="M21.0754 19.7164H1.31721C0.967868 19.7164 0.632827 19.8547 0.385802 20.1008C0.138778 20.3469 0 20.6806 0 21.0286V26.2774C0.00412905 29.0354 1.05182 31.6906 2.93408 33.7131H1.31721C0.967868 33.7131 0.632827 33.8514 0.385802 34.0975C0.138778 34.3436 0 34.6773 0 35.0253C0 35.3733 0.138778 35.707 0.385802 35.9531C0.632827 36.1992 0.967868 36.3375 1.31721 36.3375H20.6363C20.9856 36.3375 21.3207 36.1992 21.5677 35.9531C21.8147 35.707 21.9535 35.3733 21.9535 35.0253C21.9535 34.6773 21.8147 34.3436 21.5677 34.0975C21.3207 33.8514 20.9856 33.7131 20.6363 33.7131H19.0194C19.9659 32.6948 20.7108 31.5077 21.2148 30.214C22.4714 30.1778 23.6644 29.6549 24.5402 28.7566C25.416 27.8581 25.9057 26.6549 25.9051 25.4026V24.5278C25.9037 23.2522 25.3944 22.0292 24.4889 21.1273C23.5835 20.2253 22.3558 19.7179 21.0754 19.7164ZM19.3191 26.2774C19.3163 27.8203 18.8839 29.3323 18.07 30.645C17.2561 31.9577 16.0925 33.0199 14.7089 33.7131H7.24466C5.86095 33.0199 4.69743 31.9577 3.88352 30.645C3.0696 29.3323 2.6372 27.8203 2.63442 26.2774V22.3408H19.3191V26.2774ZM23.2707 25.4026C23.2703 25.8393 23.1386 26.2658 22.8927 26.6274C22.6468 26.9889 22.298 27.2688 21.8909 27.431C21.9328 27.0479 21.9537 26.6628 21.9535 26.2774V22.5245C22.3448 22.6947 22.6779 22.9748 22.9118 23.3306C23.1457 23.6864 23.2705 24.1025 23.2707 24.5278V25.4026ZM5.26884 16.6547V14.0303C5.26884 13.6823 5.40761 13.3485 5.65464 13.1024C5.90167 12.8564 6.23671 12.7181 6.58605 12.7181C6.9354 12.7181 7.27044 12.8564 7.51746 13.1024C7.76448 13.3485 7.90326 13.6823 7.90326 14.0303V16.6547C7.90326 17.0027 7.76448 17.3364 7.51746 17.5825C7.27044 17.8286 6.9354 17.9669 6.58605 17.9669C6.23671 17.9669 5.90167 17.8286 5.65464 17.5825C5.40761 17.3364 5.26884 17.0027 5.26884 16.6547ZM9.65951 16.6547V14.0303C9.65951 13.6823 9.79832 13.3485 10.0453 13.1024C10.2923 12.8564 10.6274 12.7181 10.9767 12.7181C11.3261 12.7181 11.6612 12.8564 11.9082 13.1024C12.1552 13.3485 12.294 13.6823 12.294 14.0303V16.6547C12.294 17.0027 12.1552 17.3364 11.9082 17.5825C11.6612 17.8286 11.3261 17.9669 10.9767 17.9669C10.6274 17.9669 10.2923 17.8286 10.0453 17.5825C9.79832 17.3364 9.65951 17.0027 9.65951 16.6547ZM14.0503 16.6547V14.0303C14.0503 13.6823 14.189 13.3485 14.4361 13.1024C14.6831 12.8564 15.0181 12.7181 15.3674 12.7181C15.7168 12.7181 16.0518 12.8564 16.2988 13.1024C16.5459 13.3485 16.6846 13.6823 16.6846 14.0303V16.6547C16.6846 17.0027 16.5459 17.3364 16.2988 17.5825C16.0518 17.8286 15.7168 17.9669 15.3674 17.9669C15.0181 17.9669 14.6831 17.8286 14.4361 17.5825C14.189 17.3364 14.0503 17.0027 14.0503 16.6547Z" fill="#2C2B2B"/>
</g>
</g>
<path d="M52.4277 24.9277C52.3058 24.5038 52.1345 24.1293 51.9138 23.8041C51.6932 23.4731 51.4231 23.1944 51.1038 22.9679C50.7902 22.7357 50.4302 22.5585 50.0237 22.4366C49.623 22.3147 49.1788 22.2537 48.6911 22.2537C47.7794 22.2537 46.9781 22.4802 46.2871 22.9331C45.6019 23.386 45.0676 24.0451 44.6844 24.9103C44.3011 25.7697 44.1095 26.8207 44.1095 28.0634C44.1095 29.306 44.2982 30.3629 44.6757 31.2339C45.0531 32.1049 45.5873 32.7698 46.2783 33.2285C46.9693 33.6814 47.7852 33.9079 48.7259 33.9079C49.5795 33.9079 50.3082 33.7569 50.9121 33.455C51.5219 33.1472 51.9864 32.7146 52.3058 32.1571C52.631 31.5997 52.7935 30.9406 52.7935 30.1799L53.56 30.2932H48.9611V27.4537H56.4257V29.7009C56.4257 31.2687 56.0947 32.6159 55.4327 33.7424C54.7708 34.8631 53.8591 35.7283 52.6977 36.338C51.5364 36.9419 50.2066 37.2439 48.7085 37.2439C47.0361 37.2439 45.567 36.8752 44.3011 36.1377C43.0353 35.3944 42.0481 34.3405 41.3397 32.9759C40.6371 31.6055 40.2857 29.9796 40.2857 28.0982C40.2857 26.6523 40.4948 25.3632 40.9129 24.2309C41.3368 23.0928 41.9291 22.1288 42.6898 21.3391C43.4504 20.5494 44.336 19.9484 45.3464 19.5361C46.3567 19.1238 47.4513 18.9177 48.6301 18.9177C49.6405 18.9177 50.5812 19.0658 51.4522 19.3619C52.3232 19.6523 53.0955 20.0645 53.7691 20.5988C54.4485 21.133 55.003 21.7688 55.4327 22.5063C55.8624 23.2379 56.1382 24.0451 56.2602 24.9277H52.4277ZM59.2587 37V19.1616H63.0302V26.5217H70.6864V19.1616H74.4492V37H70.6864V29.6312H63.0302V37H59.2587ZM83.2356 37V19.1616H90.2734C91.6206 19.1616 92.7703 19.4026 93.7226 19.8845C94.6807 20.3607 95.4095 21.0372 95.9089 21.914C96.414 22.785 96.6666 23.8099 96.6666 24.9887C96.6666 26.1733 96.4111 27.1924 95.9001 28.046C95.3892 28.8937 94.6488 29.5441 93.6791 29.997C92.7151 30.45 91.548 30.6764 90.1776 30.6764H85.4654V27.6453H89.5679C90.2879 27.6453 90.886 27.5466 91.3622 27.3491C91.8383 27.1517 92.1925 26.8556 92.4248 26.4607C92.6629 26.0658 92.7819 25.5752 92.7819 24.9887C92.7819 24.3964 92.6629 23.897 92.4248 23.4905C92.1925 23.0841 91.8354 22.7763 91.3534 22.5673C90.8773 22.3524 90.2763 22.245 89.5504 22.245H87.0071V37H83.2356ZM92.869 28.8821L97.3025 37H93.139L88.8014 28.8821H92.869ZM99.3319 37V19.1616H111.352V22.2711H103.103V26.5217H110.734V29.6312H103.103V33.8905H111.387V37H99.3319ZM130.09 25.4068H126.275C126.205 24.9132 126.063 24.4748 125.848 24.0915C125.633 23.7025 125.357 23.3715 125.02 23.0986C124.684 22.8257 124.295 22.6166 123.853 22.4714C123.418 22.3263 122.944 22.2537 122.433 22.2537C121.51 22.2537 120.706 22.4831 120.021 22.9418C119.336 23.3947 118.804 24.0567 118.427 24.9277C118.049 25.7929 117.861 26.8439 117.861 28.0808C117.861 29.3525 118.049 30.4209 118.427 31.2861C118.81 32.1513 119.344 32.8046 120.029 33.2459C120.715 33.6872 121.507 33.9079 122.407 33.9079C122.913 33.9079 123.38 33.8411 123.81 33.7076C124.245 33.574 124.631 33.3795 124.968 33.124C125.305 32.8627 125.584 32.5462 125.804 32.1746C126.031 31.8029 126.188 31.379 126.275 30.9029L130.09 30.9203C129.991 31.7391 129.744 32.5288 129.349 33.2895C128.96 34.0444 128.435 34.7208 127.773 35.3189C127.117 35.9112 126.333 36.3816 125.421 36.73C124.515 37.0726 123.49 37.2439 122.346 37.2439C120.755 37.2439 119.333 36.8839 118.078 36.1638C116.83 35.4438 115.843 34.4015 115.117 33.0369C114.397 31.6723 114.037 30.0203 114.037 28.0808C114.037 26.1355 114.403 24.4806 115.134 23.116C115.866 21.7514 116.859 20.712 118.113 19.9978C119.368 19.2777 120.779 18.9177 122.346 18.9177C123.38 18.9177 124.338 19.0629 125.221 19.3532C126.109 19.6435 126.896 20.0674 127.581 20.6249C128.266 21.1765 128.824 21.853 129.254 22.6544C129.689 23.4557 129.968 24.3732 130.09 25.4068ZM136.566 19.1616V37H132.794V19.1616H136.566ZM139.669 37V19.1616H146.707C148.06 19.1616 149.212 19.42 150.164 19.9368C151.117 20.4478 151.843 21.1591 152.342 22.0708C152.847 22.9766 153.1 24.0219 153.1 25.2064C153.1 26.391 152.844 27.4362 152.333 28.3421C151.822 29.248 151.082 29.9535 150.112 30.4587C149.148 30.9639 147.981 31.2165 146.611 31.2165H142.125V28.194H146.001C146.727 28.194 147.325 28.0692 147.795 27.8195C148.271 27.564 148.626 27.2127 148.858 26.7656C149.096 26.3126 149.215 25.7929 149.215 25.2064C149.215 24.6141 149.096 24.0973 148.858 23.656C148.626 23.2089 148.271 22.8634 147.795 22.6195C147.319 22.3698 146.715 22.245 145.984 22.245H143.44V37H139.669ZM155.55 37V19.1616H167.57V22.2711H159.321V26.5217H166.951V29.6312H159.321V33.8905H167.604V37H155.55ZM176.245 37V19.1616H180.016V33.8905H187.664V37H176.245ZM193.933 19.1616V37H190.162V19.1616H193.933ZM197.036 37V19.1616H204.178C205.491 19.1616 206.585 19.3561 207.462 19.7452C208.339 20.1342 208.998 20.6742 209.439 21.3653C209.881 22.0505 210.101 22.8402 210.101 23.7344C210.101 24.4312 209.962 25.0438 209.683 25.5723C209.404 26.0949 209.021 26.5246 208.533 26.8614C208.051 27.1924 207.5 27.4275 206.879 27.5669V27.7411C207.558 27.7701 208.194 27.9618 208.786 28.316C209.384 28.6702 209.869 29.1667 210.241 29.8054C210.612 30.4383 210.798 31.1932 210.798 32.07C210.798 33.0166 210.563 33.8614 210.093 34.6047C209.628 35.3422 208.94 35.9257 208.028 36.3554C207.117 36.7851 205.993 37 204.657 37H197.036ZM200.808 33.9166H203.882C204.933 33.9166 205.7 33.7163 206.182 33.3156C206.664 32.9091 206.905 32.3691 206.905 31.6955C206.905 31.2019 206.786 30.7664 206.548 30.389C206.309 30.0115 205.97 29.7154 205.528 29.5005C205.093 29.2857 204.573 29.1783 203.969 29.1783H200.808V33.9166ZM200.808 26.6262H203.603C204.12 26.6262 204.579 26.5362 204.98 26.3562C205.386 26.1704 205.706 25.9091 205.938 25.5723C206.176 25.2355 206.295 24.8319 206.295 24.3616C206.295 23.717 206.066 23.1973 205.607 22.8024C205.154 22.4076 204.509 22.2101 203.673 22.2101H200.808V26.6262ZM213.252 37V19.1616H220.29C221.637 19.1616 222.787 19.4026 223.739 19.8845C224.697 20.3607 225.426 21.0372 225.925 21.914C226.431 22.785 226.683 23.8099 226.683 24.9887C226.683 26.1733 226.428 27.1924 225.917 28.046C225.406 28.8937 224.665 29.5441 223.696 29.997C222.732 30.45 221.565 30.6764 220.194 30.6764H215.482V27.6453H219.584C220.305 27.6453 220.903 27.5466 221.379 27.3491C221.855 27.1517 222.209 26.8556 222.441 26.4607C222.679 26.0658 222.799 25.5752 222.799 24.9887C222.799 24.3964 222.679 23.897 222.441 23.4905C222.209 23.0841 221.852 22.7763 221.37 22.5673C220.894 22.3524 220.293 22.245 219.567 22.245H217.024V37H213.252ZM222.886 28.8821L227.319 37H223.156L218.818 28.8821H222.886ZM232.423 37H228.382L234.54 19.1616H239.4L245.549 37H241.508L237.04 23.2379H236.9L232.423 37ZM232.171 29.9883H241.717V32.9324H232.171V29.9883ZM247.697 37V19.1616H254.734C256.082 19.1616 257.231 19.4026 258.184 19.8845C259.142 20.3607 259.87 21.0372 260.37 21.914C260.875 22.785 261.128 23.8099 261.128 24.9887C261.128 26.1733 260.872 27.1924 260.361 28.046C259.85 28.8937 259.11 29.5441 258.14 29.997C257.176 30.45 256.009 30.6764 254.639 30.6764H249.926V27.6453H254.029C254.749 27.6453 255.347 27.5466 255.823 27.3491C256.299 27.1517 256.653 26.8556 256.886 26.4607C257.124 26.0658 257.243 25.5752 257.243 24.9887C257.243 24.3964 257.124 23.897 256.886 23.4905C256.653 23.0841 256.296 22.7763 255.814 22.5673C255.338 22.3524 254.737 22.245 254.011 22.245H251.468V37H247.697ZM257.33 28.8821L261.763 37H257.6L253.262 28.8821H257.33ZM262.005 19.1616H266.23L270.297 26.8439H270.471L274.539 19.1616H278.764L272.257 30.6938V37H268.512V30.6938L262.005 19.1616Z" fill="black"/>
</g>
<defs>
<clipPath id="clip0_256_456">
<rect width="347" height="49" fill="white"/>
</clipPath>
<clipPath id="clip1_256_456">
<rect width="219.842" height="29.9784" fill="white" transform="translate(0 12.7181)"/>
</clipPath>
<clipPath id="clip2_256_456">
<rect width="219.842" height="29.9784" fill="white" transform="translate(0 12.7181)"/>
</clipPath>
</defs>
</svg>
